PathFileType	4	(X/Y/Z)	Kaydara	
DataRate	CameraRate	NumFrames	NumMarkers	Units	OrigDataRate	OrigDataStartFrame	OrigNumFrames	
60.00	60.00	5	74	mm	60.00	278	96	
Frame#	Time	Z_lasi			Z_rasi			Z_rpsi			Z_lpsi			Z_fneck			Z_bneck			Z_fhead			Z_rhead			Z_lhead			Z_rshld			Z_relbtop			Z_relbext			Z_relblow			Z_rwrext			Z_rwrtop			Z_rwrlow			Z_lshld			Z_lelbext			Z_lelblow			Z_lelbtop			Z_lwrext			Z_lwrtop			Z_lwrlow			Z_rtopleg			Z_ltopleg			Z_rkneefr			Z_rkneebk			Z_rkneeis			Z_lkneefr			Z_lknssbk			Z_lkneeis			Z_rankfr			Z_rankis			Z_rankbk			Z_lankfr			Z_lankbk			Z_lankis			A_lasi			A_rasi			A_rpsi			A_lpsi			A_fneck			A_bneck			A_fhead			A_rhead			A_lhead			A_rshld			A_relbtop			A_relbext			A_relblow			A_rwrext			A_rwrtop			A_rwrlow			A_lshld			A_lelbext			A_lelblow			A_lelbtop			A_lwrext			A_lwrtop			A_lwrlow			A_rtopleg			A_ltopleg			A_rkneefr			A_rkneebk			A_rkneeis			A_lkneefr			A_lknssbk			A_lkneeis			A_rankfr			A_rankis			A_rankbk			A_lankfr			A_lankbk			A_lankis			
		X1	Y1	Z1	X2	Y2	Z2	X3	Y3	Z3	X4	Y4	Z4	X5	Y5	Z5	X6	Y6	Z6	X7	Y7	Z7	X8	Y8	Z8	X9	Y9	Z9	X10	Y10	Z10	X11	Y11	Z11	X12	Y12	Z12	X13	Y13	Z13	X14	Y14	Z14	X15	Y15	Z15	X16	Y16	Z16	X17	Y17	Z17	X18	Y18	Z18	X19	Y19	Z19	X20	Y20	Z20	X21	Y21	Z21	X22	Y22	Z22	X23	Y23	Z23	X24	Y24	Z24	X25	Y25	Z25	X26	Y26	Z26	X27	Y27	Z27	X28	Y28	Z28	X29	Y29	Z29	X30	Y30	Z30	X31	Y31	Z31	X32	Y32	Z32	X33	Y33	Z33	X34	Y34	Z34	X35	Y35	Z35	X36	Y36	Z36	X37	Y37	Z37	X38	Y38	Z38	X39	Y39	Z39	X40	Y40	Z40	X41	Y41	Z41	X42	Y42	Z42	X43	Y43	Z43	X44	Y44	Z44	X45	Y45	Z45	X46	Y46	Z46	X47	Y47	Z47	X48	Y48	Z48	X49	Y49	Z49	X50	Y50	Z50	X51	Y51	Z51	X52	Y52	Z52	X53	Y53	Z53	X54	Y54	Z54	X55	Y55	Z55	X56	Y56	Z56	X57	Y57	Z57	X58	Y58	Z58	X59	Y59	Z59	X60	Y60	Z60	X61	Y61	Z61	X62	Y62	Z62	X63	Y63	Z63	X64	Y64	Z64	X65	Y65	Z65	X66	Y66	Z66	X67	Y67	Z67	X68	Y68	Z68	X69	Y69	Z69	X70	Y70	Z70	X71	Y71	Z71	X72	Y72	Z72	X73	Y73	Z73	X74	Y74	Z74	

73	4.617	-220.41256	1074.36096	720.33241	-295.81387	1082.88918	525.40672	-136.95386	1117.82043	421.70086	-41.38504	1102.85400	649.99733	-273.38726	1432.59445	619.64893	-172.99971	1512.10953	603.57189	-390.58990	1616.90582	608.43224	-235.07132	1649.24149	552.61768	-245.41302	1621.95419	697.58781	-275.93212	1441.13403	423.92757	-369.73106	1134.76479	382.24308	-345.21721	1118.55209	437.30358	-407.80083	1195.00900	421.73016	-577.11437	1065.30518	517.25273	-591.20522	1109.64981	514.99157	-569.89361	1121.72714	549.76879	-122.52738	1445.28427	774.33098	-50.94793	1135.50949	769.02611	-97.22555	1155.68298	842.65198	-28.27579	1158.23586	832.84042	-160.22631	900.75233	853.65669	-138.70456	894.92889	895.37994	-96.11972	890.71503	876.69510	-184.74434	927.88597	382.20032	-131.69136	892.10709	743.43712	-282.43099	427.73895	432.67746	-212.27390	452.62444	380.45265	-216.15639	432.16095	504.27887	-200.91846	447.93690	690.93956	-94.56777	470.05928	674.97391	-194.01575	444.30752	599.08875	-254.27547	183.82822	406.69746	-229.25629	177.34259	468.04073	-178.95334	172.37774	396.90376	-148.44851	161.96312	673.28293	-91.70740	164.99699	616.07372	-169.90807	175.42356	604.74556	-998.42476	1041.70372	448.35266	-966.99516	1045.36621	605.42358	-1119.51599	1032.82791	646.86653	-1120.36926	1041.30600	462.71141	-1057.26585	1381.71021	563.01048	-1196.01967	1408.53958	571.41106	-990.38528	1582.03857	584.44344	-1135.22018	1551.90094	672.70706	-1141.59546	1565.22034	509.94728	-1100.97458	1350.62698	739.54620	-930.60547	1127.89001	727.66411	-969.36295	1075.44518	726.89728	-944.08661	1119.97696	672.87506	-715.75882	1069.37828	646.35582	-716.34689	1115.65025	644.01756	-737.80609	1105.41641	610.32501	-1132.42752	1358.44971	391.18519	-1146.35437	1044.64584	387.72030	-1077.32590	1059.48105	376.37489	-1121.90125	1053.89427	345.14458	-1043.51425	833.79494	357.45789	-1065.37231	832.92191	321.11317	-1023.25378	846.34369	308.58692	-1047.00974	876.82693	716.53999	-1055.72449	892.71210	377.96036	-1010.35484	453.83518	623.37933	-1115.10880	488.76740	674.41612	-1102.53517	487.07130	555.68501	-1002.51457	469.51973	492.54543	-1097.86232	481.19144	406.86489	-1106.91185	481.93230	532.14027	-1091.58340	167.47869	655.99045	-1127.93198	164.79292	591.69086	-1172.13783	159.08415	663.33939	-1066.64322	167.62989	449.09004	-1130.11620	169.90433	418.13389	-1121.50063	175.93071	506.66775 
74	4.633	-220.23857	1074.33929	722.47986	-295.02312	1083.22517	527.28584	-135.71072	1117.33475	424.00467	-40.91779	1101.87431	652.64931	-270.38374	1432.88559	622.28508	-169.35440	1511.90674	606.50013	-386.23833	1618.41476	611.87286	-230.46709	1649.55246	556.18343	-240.94101	1621.77612	701.02379	-272.64328	1441.26709	426.30604	-366.88221	1135.04356	384.13612	-342.50492	1118.62411	439.01539	-405.08659	1194.91669	423.72681	-574.86607	1064.42284	518.01846	-588.91354	1108.84270	515.69393	-567.89333	1120.62576	550.68001	-120.28916	1444.06616	777.16515	-52.11679	1133.74672	771.79108	-97.84402	1154.56673	845.72311	-29.51722	1156.36742	836.51573	-163.94615	900.37567	857.77336	-141.92525	894.26277	899.30763	-99.51795	889.87564	880.24742	-184.34839	927.62398	384.31675	-132.60351	891.72493	745.83076	-284.28017	427.67864	433.46687	-213.95575	452.79366	381.65764	-217.70439	431.98231	505.17288	-202.08921	447.69760	692.20978	-95.56163	469.89452	676.55525	-194.84863	444.22142	600.36194	-254.93797	183.86772	407.27924	-230.27397	177.32233	468.79887	-179.51618	172.78708	397.49676	-148.96317	161.71953	673.71109	-91.95306	165.05032	616.46347	-170.16838	175.34941	605.01228	-998.47679	1041.36337	448.19592	-967.10686	1045.05074	605.26482	-1119.69879	1032.97668	646.49117	-1120.84892	1041.52946	462.15755	-1056.25900	1381.97800	562.29416	-1195.38292	1407.84607	570.52853	-990.80841	1583.15445	584.56242	-1135.76111	1551.50894	671.90559	-1141.46034	1565.08102	509.19056	-1099.44801	1350.78156	738.73291	-929.28055	1127.98027	727.73384	-968.32619	1075.54504	726.60217	-942.39334	1120.10483	672.85194	-714.53918	1068.19580	646.18805	-714.81865	1114.51775	643.77007	-736.36383	1104.26949	610.25784	-1131.80748	1358.48419	390.59700	-1145.51399	1044.78073	387.02507	-1076.60072	1059.63638	375.13073	-1121.28128	1053.97369	344.29955	-1043.44307	833.88939	356.06361	-1065.33730	833.12172	319.67825	-1023.14636	846.33270	307.23330	-1047.82562	876.77284	716.40800	-1055.29457	892.66502	377.25945	-1010.54184	453.79829	623.39653	-1115.34546	488.63781	674.16481	-1102.54906	486.85863	555.44758	-1002.86110	469.39842	492.42710	-1098.17307	481.07368	406.56467	-1107.56310	481.88408	532.04735	-1091.52832	167.51368	655.72998	-1127.92465	164.65546	591.51356	-1172.20734	158.96124	663.15338	-1066.76422	167.52384	449.01604	-1130.22476	169.80558	418.02090	-1121.73172	175.84150	506.58451 
75	4.650	-220.06994	1074.36195	724.50317	-294.16805	1083.68484	528.99418	-134.32204	1116.84258	426.31584	-40.42147	1100.85121	655.30350	-267.72068	1433.06747	624.80213	-165.78207	1511.62384	609.31473	-381.78204	1620.35431	615.13763	-225.61209	1649.74243	559.54620	-236.32904	1621.50116	704.15733	-269.41303	1441.30432	428.63083	-364.33144	1135.27534	386.07124	-340.20927	1118.76358	441.14471	-402.58480	1194.83498	425.49473	-572.71423	1063.74130	518.79955	-586.75430	1107.94128	516.39732	-565.90694	1119.76097	552.06757	-117.54096	1443.41660	780.02335	-53.28197	1132.16393	774.47731	-98.31414	1153.59428	849.09180	-30.47897	1154.47868	839.66492	-167.50257	900.16014	861.34682	-145.34879	893.78357	902.69836	-102.99802	888.85063	883.50754	-183.93986	927.40387	386.36040	-133.37686	891.36200	748.02681	-285.92472	427.56474	434.34124	-215.54602	452.91363	382.77504	-220.19024	432.06181	506.52710	-203.05426	447.43496	693.48061	-96.45266	469.71035	678.24791	-195.81112	444.17603	601.78478	-255.67801	183.89881	407.93026	-230.62490	177.18069	469.16138	-180.13012	173.13055	398.07735	-149.11194	161.36822	673.89168	-92.28491	165.07811	616.96056	-170.44802	175.28763	605.32982	-998.63388	1041.07849	448.09010	-967.22755	1044.83093	605.10979	-1120.19348	1033.17917	646.37718	-1121.19568	1041.63383	461.92921	-1055.08736	1382.31232	561.62926	-1194.59053	1407.11227	569.77589	-991.37932	1584.54559	584.51210	-1136.27342	1551.08948	671.16798	-1141.54335	1564.96231	508.48694	-1097.84111	1350.93399	738.05168	-928.52058	1127.67723	728.20999	-967.53189	1075.55244	726.10252	-940.70686	1120.56412	672.98058	-713.72223	1067.01492	646.17226	-713.84041	1113.34862	643.76389	-735.03830	1103.28384	610.22278	-1131.01074	1358.51028	389.88049	-1145.01587	1044.93584	386.42357	-1076.04340	1059.73000	373.90919	-1121.02318	1054.06570	343.53390	-1043.52715	833.98163	354.79473	-1065.44022	833.31390	318.42958	-1023.21152	846.32500	305.94418	-1048.46863	876.78604	716.25420	-1054.63058	892.67792	376.70177	-1010.81947	453.76095	623.41702	-1115.72144	488.56892	673.97400	-1102.83012	486.72588	555.31708	-1003.26202	469.29546	492.28996	-1098.50143	480.96676	406.34460	-1108.15071	481.80428	531.91860	-1091.67946	167.44057	655.71609	-1128.00964	164.53470	591.41907	-1172.35977	158.86236	663.04153	-1066.92368	167.45682	448.92670	-1130.34676	169.67253	417.88765	-1121.81519	175.70744	506.41796 
76	4.667	-219.97133	1074.49890	726.37772	-293.47788	1084.36928	530.44250	-132.91888	1116.36948	428.60405	-39.88361	1099.86671	657.92038	-265.32949	1433.43323	627.39716	-162.46586	1511.26541	612.05391	-376.92448	1623.06870	618.27595	-220.38212	1649.95514	562.56409	-231.53208	1621.18683	707.22900	-266.32645	1441.39740	430.83065	-361.96987	1135.59837	387.92080	-338.06114	1118.74916	442.81670	-400.21919	1194.74182	427.55394	-570.86388	1063.00156	519.70081	-584.79340	1107.30759	517.10381	-564.15516	1118.56461	552.80304	-115.57209	1442.15607	782.84622	-54.43748	1130.49057	777.29141	-98.88608	1152.73293	852.20467	-31.03971	1152.56546	842.30484	-170.94395	899.87411	864.59587	-148.88021	893.38524	905.95055	-106.68827	888.04764	886.73996	-183.59028	927.21504	388.40248	-134.27295	890.90118	750.30518	-287.57391	427.50038	435.38979	-217.13303	453.10204	383.83690	-221.22200	431.83556	507.23431	-204.02472	446.98532	694.73434	-97.55491	469.43100	679.58786	-196.69727	444.04644	603.09753	-256.29847	183.94279	408.53489	-231.41903	177.14241	469.82826	-180.72124	173.39283	398.65242	-149.76315	161.14874	674.42459	-92.67409	165.06193	617.50141	-170.78653	175.15621	605.69447	-998.83507	1040.86815	447.94174	-967.42401	1044.63486	604.92901	-1120.43251	1033.54210	646.19583	-1121.46729	1041.74599	462.13020	-1053.75565	1382.75833	560.94963	-1193.68736	1406.26617	568.93871	-992.31789	1586.22299	584.38030	-1137.10709	1550.58868	670.41489	-1141.79665	1564.73053	507.72533	-1096.31104	1351.25580	737.54745	-928.24966	1127.22855	728.92090	-966.90727	1075.42336	725.43884	-939.23927	1120.95421	673.16757	-713.13812	1065.75745	646.14502	-712.87056	1112.12135	643.78464	-733.98041	1102.25853	610.36083	-1129.85985	1358.58521	389.33769	-1144.80728	1045.07370	385.66360	-1075.74387	1059.80637	372.84065	-1120.90416	1054.13712	342.64416	-1043.57079	834.08241	353.60512	-1065.51895	833.44009	317.23639	-1023.22006	846.40045	304.75815	-1049.06754	876.88965	716.12206	-1054.31358	892.75208	376.32092	-1011.28296	453.75423	623.43945	-1116.17599	488.50300	673.90839	-1103.24173	486.68274	555.28492	-1003.64044	469.18999	492.01782	-1098.95645	480.84358	406.12267	-1108.38829	481.66054	531.66462	-1091.75781	167.41793	655.66818	-1128.16795	164.44874	591.34789	-1172.49954	158.72754	662.99385	-1067.08946	167.38598	448.84975	-1130.52246	169.56661	417.78076	-1121.94481	175.62143	506.33404 
77	4.683	-219.87532	1074.64531	728.26202	-292.88786	1084.98840	531.95740	-131.61426	1115.95596	431.03352	-39.51065	1099.00986	660.52383	-263.14199	1433.94440	629.56608	-159.22843	1510.73746	614.67499	-371.28273	1626.66840	621.26396	-214.27898	1650.05920	565.37548	-225.82516	1621.13632	709.98177	-263.47605	1441.37680	432.92969	-359.83418	1135.76721	389.76425	-335.97137	1118.80394	444.59293	-398.16708	1194.71375	429.40277	-569.08539	1062.27646	520.30903	-583.11565	1106.44623	517.91027	-562.68578	1117.69302	553.69686	-113.57782	1441.54434	785.59944	-55.49818	1128.98315	780.23506	-99.27476	1151.73920	855.27657	-31.42990	1150.86380	844.54498	-174.14881	899.69917	867.33986	-152.12892	892.89772	908.67043	-110.03888	887.22595	889.46541	-183.05449	927.10129	390.36907	-134.82597	890.43968	752.44286	-288.77575	427.49397	436.49826	-218.50986	453.31718	384.91741	-223.16696	431.86729	508.66703	-204.96279	446.75270	695.98503	-98.54227	469.04869	681.05103	-197.46462	443.86868	604.34330	-256.80141	183.96276	409.19090	-231.82421	177.15540	470.38662	-181.25113	173.71111	399.17309	-150.27968	160.86521	674.69223	-92.90196	165.11007	617.90730	-171.03519	175.04986	605.96100	-998.99567	1040.67253	447.75234	-967.58438	1044.45274	604.73633	-1120.67604	1034.01024	646.05522	-1121.57654	1041.79161	462.09560	-1052.32994	1383.22861	560.34382	-1192.62009	1405.24902	568.16883	-993.40607	1588.25638	584.21322	-1137.99477	1550.14420	669.68369	-1142.31514	1564.47708	506.99482	-1094.74785	1351.60217	737.08748	-927.73895	1126.74698	729.34593	-966.58371	1075.10582	724.87579	-938.10417	1121.13953	673.43330	-712.52098	1064.29184	646.14296	-712.30179	1110.70793	643.77510	-733.15254	1101.00395	610.34233	-1128.37219	1358.66791	388.66901	-1144.79836	1045.29282	384.75861	-1075.56999	1059.78706	371.97083	-1120.79865	1054.33441	341.82823	-1043.83568	834.12918	352.60521	-1065.72380	833.47626	316.25139	-1023.54523	846.45760	303.74334	-1049.59419	877.02660	716.07513	-1054.29260	892.73224	375.86750	-1011.69212	453.78624	623.25596	-1116.76018	488.42781	673.99651	-1103.87428	486.69598	555.40112	-1004.11530	469.14253	491.85993	-1099.43581	480.75863	405.99506	-1108.66974	481.49158	531.43341	-1091.87439	167.41056	655.60966	-1128.36861	164.37634	591.37341	-1172.62985	158.59888	663.00629	-1067.25220	167.34564	448.76366	-1130.71175	169.48467	417.72545	-1122.01660	175.51054	506.28899 
